name analog
datacolumns 19
datarows 40
range 0.338 0.3575
endheader
time	ground_force_vx	ground_force_vy	ground_force_vz	ground_force_px	ground_force_py	ground_force_pz	l_ground_force_vx	l_ground_force_vy	l_ground_force_vz	l_ground_force_px	l_ground_force_py	l_ground_force_pz	ground_torque_x	ground_torque_y	ground_torque_z	l_ground_torque_x	l_ground_torque_y	l_ground_torque_z
0.338	-0.0	-0.0	-0.0	-0.0	-0.0	-0.0	-5.478042602539063	-1.0376553535461426	-758.357421875	-0.0	-0.0	-0.0	-0.0	-0.0	-0.0	239529.328125	25092.87109375	-2785.02001953125
0.3385	-0.0	-0.0	-0.0	-0.0	-0.0	-0.0	-4.54635763168335	-1.048933744430542	-759.2300415039062	-0.0	-0.0	-0.0	-0.0	-0.0	-0.0	239893.71875	24875.46484375	-2391.47412109375
0.339	-0.0	-0.0	-0.0	-0.0	-0.0	-0.0	-3.681627988815308	-1.2366074323654177	-760.97607421875	-0.0	-0.0	-0.0	-0.0	-0.0	-0.0	240416.84375	24887.421875	-2094.255859375
0.3395	-0.0	-0.0	-0.0	-0.0	-0.0	-0.0	-3.459559917449951	-1.103901505470276	-761.2822265625	-0.0	-0.0	-0.0	-0.0	-0.0	-0.0	240871.90625	24776.19140625	-2094.114501953125
0.34	-0.0	-0.0	-0.0	-0.0	-0.0	-0.0	-4.54661750793457	-0.0879223346710205	-762.5465087890625	-0.0	-0.0	-0.0	-0.0	-0.0	-0.0	241031.015625	25029.21875	-2494.947021484375
0.3405	-0.0	-0.0	-0.0	-0.0	-0.0	-0.0	-5.732973098754883	0.6290806531906128	-761.7221069335938	-0.0	-0.0	-0.0	-0.0	-0.0	-0.0	240958.015625	25166.515625	-2918.37353515625
0.341	-0.0	-0.0	-0.0	-0.0	-0.0	-0.0	-6.607741355895996	0.969607710838318	-760.2786254882812	-0.0	-0.0	-0.0	-0.0	-0.0	-0.0	241120.34375	25190.8203125	-3252.58447265625
0.3415	-0.0	-0.0	-0.0	-0.0	-0.0	-0.0	-7.3848557472229	0.827014148235321	-759.703857421875	-0.0	-0.0	-0.0	-0.0	-0.0	-0.0	241217.109375	25329.55078125	-3475.369140625
0.342	-0.0	-0.0	-0.0	-0.0	-0.0	-0.0	-7.384171485900879	0.7936922907829285	-759.9255981445312	-0.0	-0.0	-0.0	-0.0	-0.0	-0.0	241161.8125	25365.517578125	-3483.387451171875
0.3425	-0.0	-0.0	-0.0	-0.0	-0.0	-0.0	-7.051439762115479	0.6956700086593628	-760.4107055664062	-0.0	-0.0	-0.0	-0.0	-0.0	-0.0	241456.625	25290.30859375	-3513.33056640625
0.343	-0.0	-0.0	-0.0	-0.0	-0.0	-0.0	-6.784875392913818	1.0598602294921875	-760.9700317382812	-0.0	-0.0	-0.0	-0.0	-0.0	-0.0	241876.171875	25326.9609375	-3593.57080078125
0.3435	-0.0	-0.0	-0.0	-0.0	-0.0	-0.0	-7.0964202880859375	1.7199327945709229	-762.3350830078125	-0.0	-0.0	-0.0	-0.0	-0.0	-0.0	241880.109375	25215.12890625	-3572.332763671875
0.34400000000000003	-0.0	-0.0	-0.0	-0.0	-0.0	-0.0	-6.921221256256104	1.9411966800689695	-762.1212158203125	-0.0	-0.0	-0.0	-0.0	-0.0	-0.0	242007.75	25174.794921875	-3475.949462890625
0.34450000000000003	-0.0	-0.0	-0.0	-0.0	-0.0	-0.0	-5.976006507873535	2.2617852687835693	-762.9406127929688	-0.0	-0.0	-0.0	-0.0	-0.0	-0.0	242355.9375	25044.4765625	-3177.69580078125
0.34500000000000003	-0.0	-0.0	-0.0	-0.0	-0.0	-0.0	-4.925598621368408	2.824866771697998	-764.10986328125	-0.0	-0.0	-0.0	-0.0	-0.0	-0.0	242931.046875	24675.412109375	-2703.171875
0.34550000000000003	-0.0	-0.0	-0.0	-0.0	-0.0	-0.0	-3.806434392929077	2.671353340148926	-766.661865234375	-0.0	-0.0	-0.0	-0.0	-0.0	-0.0	243426.984375	24744.44140625	-2506.059326171875
0.34600000000000003	-0.0	-0.0	-0.0	-0.0	-0.0	-0.0	-3.062201738357544	2.603690385818481	-767.3359985351562	-0.0	-0.0	-0.0	-0.0	-0.0	-0.0	243989.40625	24633.615234375	-2182.36376953125
0.34650000000000003	-0.0	-0.0	-0.0	-0.0	-0.0	-0.0	-2.549973726272583	2.834868907928467	-768.8355712890625	-0.0	-0.0	-0.0	-0.0	-0.0	-0.0	244243.609375	24379.16796875	-1992.218017578125
0.34700000000000003	-0.0	-0.0	-0.0	-0.0	-0.0	-0.0	-2.1271090507507324	2.4710659980773926	-768.6688232421875	-0.0	-0.0	-0.0	-0.0	-0.0	-0.0	244579.5625	24336.716796875	-2019.9957275390625
0.34750000000000003	-0.0	-0.0	-0.0	-0.0	-0.0	-0.0	-1.8973768949508667	2.650612592697144	-770.6236572265625	-0.0	-0.0	-0.0	-0.0	-0.0	-0.0	244796.234375	24227.794921875	-1831.23583984375
0.34800000000000003	-0.0	-0.0	-0.0	-0.0	-0.0	-0.0	-2.0360138416290283	2.4277892112731934	-771.7022705078125	-0.0	-0.0	-0.0	-0.0	-0.0	-0.0	244810.09375	24224.91796875	-1756.798828125
0.34850000000000003	-0.0	-0.0	-0.0	-0.0	-0.0	-0.0	-2.2814438343048096	2.347508430480957	-770.1995239257812	-0.0	-0.0	-0.0	-0.0	-0.0	-0.0	244691.1875	24111.0546875	-1940.236572265625
0.34900000000000003	-0.0	-0.0	-0.0	-0.0	-0.0	-0.0	-2.8387451171875	2.293949842453003	-771.6155395507812	-0.0	-0.0	-0.0	-0.0	-0.0	-0.0	244621.1875	24145.84375	-2076.297607421875
0.34950000000000003	-0.0	-0.0	-0.0	-0.0	-0.0	-0.0	-2.7620480060577397	2.112163543701172	-771.2056884765625	-0.0	-0.0	-0.0	-0.0	-0.0	-0.0	244491.46875	24224.55859375	-2037.2330322265625
0.35000000000000003	-0.0	-0.0	-0.0	-0.0	-0.0	-0.0	-2.658653259277344	2.2536115646362305	-769.7791748046875	-0.0	-0.0	-0.0	-0.0	-0.0	-0.0	244258.171875	23947.701171875	-2121.361572265625
0.35050000000000003	-0.0	-0.0	-0.0	-0.0	-0.0	-0.0	-2.7992310523986816	2.368802070617676	-771.233642578125	-0.0	-0.0	-0.0	-0.0	-0.0	-0.0	244221.703125	23807.18359375	-2172.6611328125
0.35100000000000003	-0.0	-0.0	-0.0	-0.0	-0.0	-0.0	-2.621309280395508	2.874776840209961	-771.8167114257812	-0.0	-0.0	-0.0	-0.0	-0.0	-0.0	244221.0625	23867.87890625	-2167.576904296875
0.35150000000000003	-0.0	-0.0	-0.0	-0.0	-0.0	-0.0	-2.5244648456573486	2.859806537628174	-772.0939331054688	-0.0	-0.0	-0.0	-0.0	-0.0	-0.0	244385.265625	23627.296875	-2125.110595703125
0.352	-0.0	-0.0	-0.0	-0.0	-0.0	-0.0	-1.7512507438659668	2.651228904724121	-772.9779052734375	-0.0	-0.0	-0.0	-0.0	-0.0	-0.0	244653.015625	23320.087890625	-1810.0565185546875
0.3525	-0.0	-0.0	-0.0	-0.0	-0.0	-0.0	-0.2834468185901642	2.278399705886841	-773.9628295898438	-0.0	-0.0	-0.0	-0.0	-0.0	-0.0	244896.90625	23031.830078125	-1307.33154296875
0.353	-0.0	-0.0	-0.0	-0.0	-0.0	-0.0	1.7383689880371094	1.943077087402344	-774.727294921875	-0.0	-0.0	-0.0	-0.0	-0.0	-0.0	245235.140625	22659.009765625	-770.6732177734375
0.3535	-0.0	-0.0	-0.0	-0.0	-0.0	-0.0	2.886690616607666	1.5209124088287354	-776.3526000976562	-0.0	-0.0	-0.0	-0.0	-0.0	-0.0	245206.84375	22518.70703125	-439.2657165527344
0.354	-0.0	-0.0	-0.0	-0.0	-0.0	-0.0	4.061259269714356	1.2576637268066406	-776.5965576171875	-0.0	-0.0	-0.0	-0.0	-0.0	-0.0	245171.3125	22196.962890625	-94.06353759765624
0.3545	-0.0	-0.0	-0.0	-0.0	-0.0	-0.0	4.927146911621094	0.8537722229957581	-776.213134765625	-0.0	-0.0	-0.0	-0.0	-0.0	-0.0	244977.0	21959.09765625	218.78518676757807
0.355	-0.0	-0.0	-0.0	-0.0	-0.0	-0.0	5.376567363739014	0.4031614065170288	-776.6652221679688	-0.0	-0.0	-0.0	-0.0	-0.0	-0.0	244865.25	21757.77734375	314.7589416503906
0.3555	-0.0	-0.0	-0.0	-0.0	-0.0	-0.0	5.725749492645264	0.2572186887264251	-776.4332275390625	-0.0	-0.0	-0.0	-0.0	-0.0	-0.0	245013.890625	21288.876953125	527.7540893554688
0.356	-0.0	-0.0	-0.0	-0.0	-0.0	-0.0	6.765175819396973	0.1767512708902359	-776.6560668945312	-0.0	-0.0	-0.0	-0.0	-0.0	-0.0	245241.140625	21135.267578125	735.9956665039062
0.3565	-0.0	-0.0	-0.0	-0.0	-0.0	-0.0	7.474953174591064	0.1397454738616943	-779.0447387695312	-0.0	-0.0	-0.0	-0.0	-0.0	-0.0	245503.734375	20934.78515625	897.0609741210938
0.357	-0.0	-0.0	-0.0	-0.0	-0.0	-0.0	7.751542568206787	-0.2776903212070465	-780.1876831054688	-0.0	-0.0	-0.0	-0.0	-0.0	-0.0	245751.578125	20696.21484375	1062.077392578125
0.3575	-0.0	-0.0	-0.0	-0.0	-0.0	-0.0	7.981109619140625	-0.2925173342227936	-779.863037109375	-0.0	-0.0	-0.0	-0.0	-0.0	-0.0	245688.375	20828.775390625	1054.04296875
